<svg xmlns="http://www.w3.org/2000/svg" version="1.1" xmlns:xlink="http://www.w3.org/1999/xlink" xmlns:svgjs="http://svgjs.dev/svgjs" width="1440" height="560" preserveAspectRatio="none" viewBox="0 0 1440 560"><g mask="url(&quot;#SvgjsMask1125&quot;)" fill="none"><path d="M1464 560L0 560 L0 333.6Q44.76 258.36, 120 303.12Q140.52 251.64, 192 272.16Q274.67 234.83, 312 317.49Q381.03 266.52, 432 335.56Q502.06 285.63, 552 355.69Q582.77 266.47, 672 297.24Q713.89 267.13, 744 309.03Q813.36 258.39, 864 327.75Q877.09 268.84, 936 281.93Q1001.87 227.8, 1056 293.67Q1128.38 294.05, 1128 366.42Q1117.12 283.53, 1200 272.65Q1279.05 279.69, 1272 358.74Q1323.55 290.28, 1392 341.83Q1408.97 286.8, 1464 303.77z" fill="rgba(248, 248, 248, 1)"></path><path d="M1560 560L0 560 L0 366.69Q88.69 335.38, 120 424.07Q137 369.07, 192 386.08Q233.47 307.55, 312 349.03Q353.99 319.02, 384 361.01Q455.47 312.48, 504 383.94Q580.34 340.28, 624 416.63Q627.99 348.62, 696 352.6Q761.59 298.19, 816 363.78Q889.06 316.84, 936 389.9Q989.6 323.5, 1056 377.09Q1084.98 334.07, 1128 363.05Q1177.03 340.08, 1200 389.11Q1273.41 342.52, 1320 415.94Q1393.1 369.03, 1440 442.13Q1494.88 377.01, 1560 431.89z" fill="rgba(239, 239, 239, 1)"></path><path d="M1464 560L0 560 L0 484.15Q27.39 391.54, 120 418.93Q168.6 395.53, 192 444.13Q236.09 416.22, 264 460.31Q323 447.31, 336 506.31Q387.46 437.77, 456 489.24Q497.8 411.04, 576 452.84Q625.07 429.9, 648 478.97Q659.44 418.41, 720 429.85Q786.3 376.15, 840 442.45Q912.84 395.29, 960 468.13Q973.99 410.12, 1032 424.11Q1100.47 372.58, 1152 441.05Q1219.74 436.8, 1224 504.54Q1267.92 428.46, 1344 472.38Q1386.02 394.4, 1464 436.42z" fill="rgba(242, 242, 249, 1)"></path><path d="M1464 560L0 560 L0 559.97Q39.78 527.75, 72 567.54Q79.63 503.16, 144 510.79Q185.78 480.57, 216 522.34Q239.96 474.31, 288 498.27Q384.04 474.31, 408 570.34Q449.18 491.52, 528 532.69Q543.16 475.86, 600 491.02Q669.95 440.97, 720 510.91Q791.78 462.69, 840 534.47Q911.26 485.73, 960 556.99Q1032 508.99, 1080 580.99Q1098.28 479.26, 1200 497.54Q1271.72 449.26, 1320 520.98Q1350.07 479.05, 1392 509.11Q1422.01 467.12, 1464 497.13z" fill="rgba(17, 0, 145, 1)"></path></g><defs><mask id="SvgjsMask1125"><rect width="1440" height="560" fill="#ffffff"></rect></mask></defs></svg>