<svg xmlns="http://www.w3.org/2000/svg" width="38" height="39" fill="none" viewBox="0 0 38 39">
    <path fill="#27AE60" fill-rule="evenodd" d="M.22 3.859c0-1.933 1.568-3.5 3.5-3.5 18.849 0 34.128 15.279 34.128 34.127 0 1.933-1.567 3.5-3.5 3.5s-3.5-1.567-3.5-3.5c0-14.982-12.145-27.127-27.127-27.127-1.933 0-3.5-1.567-3.5-3.5zm0 13.515c0-1.933 1.568-3.5 3.5-3.5 11.503 0 20.828 9.324 20.828 20.827 0 1.933-1.567 3.5-3.5 3.5s-3.5-1.567-3.5-3.5c0-7.637-6.19-13.827-13.827-13.827-1.933 0-3.5-1.567-3.5-3.5zM1.628 27.52c5.31 0 9.614 4.304 9.614 9.613H1.508l.12-9.613z" clip-rule="evenodd"/>
</svg>
