<svg width="13" height="14" viewBox="0 0 13 14" fill="none" xmlns="http://www.w3.org/2000/svg">
<path fill-rule="evenodd" clip-rule="evenodd" d="M6.56792 2.44419C6.42005 2.39791 6.26309 2.37303 6.1007 2.37303C5.23289 2.37303 4.52067 3.08317 4.52067 3.97023V4.35303H4.51989V5.03942H7.53038L1.93408 9.3921V5.32153C1.93408 5.16573 2.06039 5.03942 2.21619 5.03942H3.1471V3.96998C3.1471 2.33455 4.46419 1 6.09992 1C6.40512 1 6.69923 1.04648 6.97577 1.13271C8.14704 1.49759 9.00313 2.57567 9.05112 3.85662L7.67968 4.9233V3.96998C7.67968 3.24924 7.2095 2.64534 6.56792 2.44419ZM10.2672 6.14335L12.3348 4.53521L11.5471 3.52246L0 12.5035L0.787693 13.5163L3.42767 11.463H9.98506C10.1409 11.463 10.2672 11.3367 10.2672 11.1809L10.2672 6.14335Z" fill="#2CCE70"/>
</svg>