<svg width="24" height="24" viewBox="0 0 24 24" fill="none" xmlns="http://www.w3.org/2000/svg">
<path fill-rule="evenodd" clip-rule="evenodd" d="M19.5002 11.5094C19.8949 11.5094 20.281 11.4736 20.6555 11.4051C20.7505 11.9558 20.8 12.5221 20.8 13.1C20.8 18.5676 16.3676 23 10.9 23C5.43238 23 1 18.5676 1 13.1C1 7.63238 5.43238 3.2 10.9 3.2C11.7973 3.2 12.6666 3.31936 13.4931 3.54308C13.3177 4.11118 13.2234 4.71396 13.2234 5.3384C13.2234 8.74655 16.0336 11.5094 19.5002 11.5094ZM11.1308 21.4653C13.2927 21.4653 15.2551 20.6258 16.6993 19.2603C15.7939 17.0769 13.6417 15.5412 11.1308 15.5412C8.61988 15.5412 6.46768 17.0769 5.56225 19.2603C7.00643 20.6258 8.96888 21.4653 11.1308 21.4653ZM11.2799 7.81768C9.78854 7.95149 8.62035 9.18434 8.62035 10.6854C8.62035 12.2759 9.93179 13.5652 11.5495 13.5652C12.6276 13.5652 13.5696 12.9927 14.0781 12.1401C12.6655 11.1035 11.6462 9.57751 11.2799 7.81768Z" fill="currentColor"/>
<path d="M18.5033 0.999999C18.0923 0.999999 17.7502 1.34413 17.7502 1.74465L17.7502 5.79526L17.8105 7.01059L17.3115 6.41134L16.1704 5.1862C16.0409 5.04077 15.86 4.96364 15.6702 4.96364C15.306 4.96364 15 5.2367 15 5.61876C15 5.81535 15.0788 5.96079 15.2149 6.09806L17.9357 8.73968C18.1269 8.93251 18.3026 9 18.5033 9C18.6975 9 18.8716 8.93251 19.0709 8.73968L21.7918 6.09806C21.9264 5.96079 22 5.81535 22 5.61876C22 5.2367 21.7074 4.96364 21.3365 4.96364C21.1534 4.96364 20.9591 5.04077 20.8296 5.1862L19.6953 6.41134L19.1895 7.01059L19.2498 5.79526L19.2498 1.74465C19.2498 1.34413 18.9144 0.999999 18.5033 0.999999Z" fill="currentColor"/>
</svg>
