<svg width="45" height="47" viewBox="0 0 45 47" fill="none" xmlns="http://www.w3.org/2000/svg">
<g clip-path="url(#clip0_4794_38715)">
<g clip-path="url(#clip1_4794_38715)">
<path d="M28.9364 16.3714L16.86 9.38281L4.78357 16.4391C4.70902 16.4815 4.64698 16.5429 4.60371 16.617C4.56044 16.6911 4.53747 16.7753 4.53711 16.8611V30.5114C4.54183 30.5962 4.56663 30.6786 4.60948 30.752C4.65233 30.8255 4.712 30.8876 4.78357 30.9334L16.8584 37.86L28.9348 30.848C29.0064 30.8023 29.0661 30.7401 29.109 30.6667C29.1519 30.5933 29.1766 30.5108 29.1813 30.426V16.7967C29.1818 16.7104 29.1593 16.6257 29.1163 16.551C29.0733 16.4763 29.0112 16.4143 28.9364 16.3714Z" fill="#000091"/>
<path d="M12.5469 16.7742L8.49646 23.7233L4.82617 16.3336L9.16737 13.8263L12.7829 16.3714L12.5469 16.7742ZM29.1836 30.4501V16.7919C29.1836 16.7061 29.1607 16.6218 29.1175 16.5478C29.0742 16.4738 29.0119 16.4127 28.9371 16.3706L16.8615 9.38281" fill="#FCC63A"/>
<path d="M4.53872 30.4501L16.8616 9.38281V37.864L4.78357 30.9334C4.712 30.8876 4.65233 30.8255 4.60948 30.752C4.56663 30.6786 4.54183 30.5962 4.53711 30.5113V16.8611L4.53872 30.4501ZM24.4076 13.7498L28.8035 16.2909L25.188 23.6605L20.8492 16.2216L24.4076 13.7498Z" fill="#0063CB"/>
<path d="M32.6533 14.1186L17.1973 5.24289C17.0932 5.19104 16.9786 5.16406 16.8623 5.16406C16.746 5.16406 16.6313 5.19104 16.5272 5.24289L1.07124 14.1186C0.978205 14.1805 0.901019 14.2634 0.8459 14.3606C0.790781 14.4579 0.75927 14.5667 0.753906 14.6784V32.3976C0.758648 32.5098 0.789864 32.6194 0.84501 32.7175C0.900156 32.8154 0.977672 32.899 1.07124 32.9613L16.5264 41.837C16.6305 41.8888 16.7451 41.9158 16.8614 41.9158C16.9778 41.9158 17.0924 41.8888 17.1965 41.837L32.6533 32.9613C32.7469 32.899 32.8243 32.8154 32.8795 32.7175C32.9347 32.6194 32.9658 32.5098 32.9706 32.3976V14.6784C32.9652 14.5667 32.9337 14.4579 32.8786 14.3606C32.8235 14.2634 32.7463 14.1805 32.6533 14.1186ZM9.44355 28.4196H9.50718C9.47335 28.4196 9.44355 28.4252 9.44355 28.4599C9.44355 28.5404 9.56517 28.4599 9.60464 28.5404C9.41327 28.5457 9.23149 28.6254 9.09803 28.7627C9.09803 28.8038 9.17857 28.8038 9.21965 28.8038C9.15924 28.8843 9.03762 28.8441 8.99655 28.9254C9.01837 28.9471 9.04656 28.9612 9.07709 28.9657C9.03682 28.9657 8.99655 28.9657 8.99655 29.0068V29.1284C8.89507 29.1284 8.85479 29.2089 8.77345 29.25C8.93453 29.3716 9.03682 29.25 9.19871 29.25C8.77345 29.4111 8.42873 29.635 8.00347 29.7566C7.92293 29.7566 8.00347 29.8782 7.92293 29.8782C8.04454 29.9588 8.10576 29.8379 8.22657 29.8379C7.69983 30.1416 7.15295 30.4017 6.58593 30.7497C6.54225 30.7932 6.51396 30.8497 6.50539 30.9108H6.34431C6.26377 30.951 6.30404 31.0525 6.22269 31.1339C6.40471 31.2555 6.6254 30.9728 6.74943 31.1339C6.7897 31.1339 6.66889 31.1741 6.58835 31.1741C6.54808 31.1741 6.54808 31.2547 6.50781 31.2547H6.38377C6.30323 31.3151 6.22269 31.3562 6.22269 31.477C6.18777 31.4705 6.15171 31.4747 6.11923 31.489C6.08675 31.5035 6.05938 31.5273 6.04067 31.5575C6.90571 31.554 7.7632 31.3964 8.5729 31.092C9.20088 30.7722 9.76959 30.3475 10.2546 29.8363C10.2764 29.8581 10.2905 29.8863 10.2949 29.9169C10.1764 30.2684 9.94903 30.573 9.64571 30.7867C9.42261 30.9083 9.26072 31.0904 9.08192 31.1717C8.96248 31.2385 8.8473 31.3127 8.7372 31.394C8.22795 31.5524 7.70517 31.6635 7.1755 31.7258L6.92985 31.7613C6.74863 31.7879 6.56821 31.8168 6.38941 31.8483L4.78421 30.9317C4.72548 30.8947 4.67472 30.8464 4.63489 30.7895C4.59505 30.7327 4.56697 30.6685 4.55225 30.6007C4.5791 30.5863 4.60446 30.5693 4.62796 30.5499C4.603 30.5234 4.57167 30.5037 4.53695 30.4927V29.9692C5.38097 29.8191 6.20295 29.5643 6.98381 29.2105C6.24502 28.6971 5.4147 28.3299 4.53776 28.1288V26.9086C4.98482 26.9819 5.426 27.0874 5.85784 27.2244C6.19029 27.3465 6.5093 27.5025 6.80984 27.6899C6.92794 27.8035 7.05689 27.9051 7.19483 27.9935C7.29203 28.0489 7.40064 28.0814 7.51232 28.0884C7.62401 28.0954 7.73582 28.0767 7.83916 28.0338H8.10495C8.68196 27.9384 9.22166 27.6863 9.66504 27.3049C9.66504 27.3452 9.70531 27.3452 9.74559 27.3452C9.68252 27.6662 9.56598 27.9744 9.40087 28.2569C9.40328 28.298 9.36221 28.3793 9.44355 28.4196ZM11.7124 31.2957C11.9146 31.2152 12.0346 31.0726 12.219 30.9921C12.1788 31.0324 12.1788 31.1137 12.1385 31.1532C11.9874 31.2476 11.8451 31.3554 11.7132 31.4754C11.2576 31.8769 10.831 32.3102 10.4366 32.7721C10.2337 33.0137 10.0114 33.2376 9.7923 33.4607C9.71466 33.5333 9.63114 33.5992 9.54262 33.658L7.50733 32.4902C7.79682 32.5146 8.08828 32.5002 8.37396 32.4475C8.6111 32.381 8.84159 32.2929 9.06259 32.1841V32.2647C9.62638 32.0416 10.0549 31.535 10.6227 31.3529C10.6428 31.3529 10.7242 31.4335 10.8047 31.3932C10.9506 31.2124 11.1361 31.0676 11.3468 30.9698C11.5575 30.872 11.7879 30.824 12.0201 30.8294C12.0201 30.8697 12.0201 30.91 12.0604 30.91H12.0805C11.9589 31.0114 11.8171 31.1121 11.6778 31.2136C11.6319 31.2555 11.6721 31.2957 11.7124 31.2957ZM4.53776 26.3312V26.1813C4.95508 26.0722 5.38548 26.0212 5.81676 26.0299C5.94429 26.0096 6.07422 26.0096 6.20175 26.0299C5.63348 26.0294 5.06977 26.1314 4.53776 26.3312ZM29.1835 30.4291C29.1789 30.5139 29.1541 30.5965 29.1113 30.6699C29.0684 30.7432 29.0087 30.8054 28.9371 30.8512L20.8193 35.5637C19.8872 35.2969 18.9708 34.9783 18.0744 34.6092C17.9445 34.3265 17.8739 34.0203 17.8669 33.7093C17.86 33.3983 17.9169 33.0892 18.0341 32.8011C18.0985 32.553 18.1937 32.3141 18.3176 32.0899C18.3378 32.0697 18.3579 32.0496 18.3579 32.0287C18.3632 32.0287 18.3684 32.0265 18.3722 32.0228C18.376 32.019 18.378 32.0139 18.378 32.0085C18.4675 31.8519 18.569 31.7024 18.6817 31.5615L18.6938 31.5495L18.7099 31.5325L18.722 31.5205C18.722 31.5003 18.7421 31.4802 18.7622 31.4592C18.7824 31.4182 18.8226 31.398 18.8428 31.3578C18.9842 31.208 19.1404 31.0731 19.3091 30.9551C19.4804 30.893 19.6566 30.8453 19.8359 30.8125C20.489 30.8606 21.1386 30.9488 21.7809 31.0767C21.8599 31.0885 21.9357 31.1159 22.004 31.1572C22.2465 31.2044 22.4971 31.1906 22.7329 31.1169C22.8867 31.0888 23.0307 31.0217 23.1513 30.9223C23.2718 30.8227 23.3649 30.6939 23.4216 30.5483C23.4924 30.4185 23.533 30.2742 23.5399 30.1264C23.5469 29.9787 23.5202 29.8313 23.4618 29.6954C23.3185 29.4731 23.4514 29.3434 23.6076 29.2202L23.6624 29.1759C23.732 29.1266 23.7946 29.068 23.8484 29.0019C23.9499 28.799 23.7679 28.6798 23.7268 28.4945C23.6866 28.414 23.5448 28.4542 23.4635 28.3334C23.747 28.2118 24.1521 27.9879 23.9701 27.6432C23.8484 27.4604 23.6664 27.1358 23.8895 26.9529C24.173 26.7919 24.5782 26.8313 24.6998 26.5671C24.7396 26.4135 24.7388 26.2523 24.6975 26.0991C24.6564 25.9459 24.5761 25.8061 24.4646 25.6933L24.4042 25.6063C24.3438 25.5201 24.2842 25.4339 24.2342 25.3485C24.1063 25.1361 23.9642 24.9324 23.809 24.7388C23.6318 24.488 23.4888 24.2147 23.3837 23.9262C23.2621 23.6217 23.424 23.3576 23.424 23.0531C23.4359 22.4666 23.3468 21.8825 23.1606 21.3263C23.0591 21.042 23.0189 20.7375 22.8972 20.4734C22.8819 20.3036 22.8188 20.1416 22.7152 20.0062C22.6952 19.9651 22.6848 19.9199 22.6848 19.8741C22.6848 19.8284 22.6952 19.7832 22.7152 19.742C22.8803 19.6256 23.0363 19.4966 23.1816 19.3562C23.2264 19.2577 23.2349 19.1465 23.2054 19.0424C23.1759 18.9382 23.1104 18.8479 23.0205 18.7876C22.7571 18.666 22.7788 19.0518 22.5952 19.1331H22.4736C22.4333 19.0317 22.5139 18.9906 22.5952 18.91C22.5952 18.8698 22.5952 18.7884 22.5549 18.7884C22.3939 18.7884 22.2513 18.7473 22.2102 18.6668C21.822 18.183 21.3011 17.823 20.7113 17.631C20.8628 17.6775 21.0194 17.7046 21.1777 17.7116C21.4496 17.7691 21.7327 17.7409 21.9879 17.631C22.1708 17.5698 22.211 17.2452 22.2916 17.0624C22.3079 16.9739 22.3055 16.883 22.2846 16.7954C22.2636 16.7079 22.2246 16.6257 22.17 16.5542C21.987 16.2882 21.7346 16.0776 21.4402 15.9453C21.2985 15.8841 21.0754 15.7625 20.8934 15.661C20.8314 15.6173 20.7632 15.5831 20.6912 15.5595C18.3031 14.3635 13.3869 15.3984 13.0124 15.5595H13.0051C12.66 15.6595 12.3236 15.7875 11.9991 15.9421C11.5525 16.1079 11.1491 16.3727 10.8192 16.7165C10.4894 17.0602 10.2416 17.4742 10.0943 17.9274C9.63444 18.2295 9.26379 18.6492 9.02071 19.1428C8.67599 19.7871 8.17019 20.3582 8.25073 21.0871C8.33127 21.7153 8.47383 22.2823 8.59545 22.9307C8.63003 23.1498 8.68393 23.3654 8.75653 23.575C8.83708 23.7973 8.75653 24.0816 8.87815 24.2636C8.93856 24.3853 8.89829 24.527 9.06098 24.6084V24.7694C9.10125 24.8097 9.10125 24.85 9.1826 24.85V25.0111C9.53271 25.3522 9.83281 25.7409 10.0742 26.166C10.1547 26.3883 9.68921 26.2877 9.5104 26.2063C9.17575 25.9884 8.86945 25.7297 8.59867 25.4363C8.57651 25.4579 8.56207 25.4862 8.5576 25.5169C8.71868 25.8004 9.2873 26.1451 8.98286 26.3271C8.82177 26.4077 8.63814 26.2055 8.47625 26.3682C8.43598 26.4286 8.47625 26.51 8.47625 26.5905C8.25315 26.4294 8.01072 26.51 7.78762 26.4294C7.62653 26.3891 7.58465 26.0855 7.40263 26.0855C6.9222 25.9682 6.4351 25.8803 5.94402 25.8221C5.48 25.7525 5.01234 25.7098 4.54339 25.6941V16.8594C4.54376 16.7736 4.56673 16.6894 4.61 16.6153C4.65326 16.5412 4.7153 16.4799 4.78985 16.4374L16.8606 9.38112L28.9371 16.3698C29.0117 16.4121 29.0737 16.4735 29.117 16.5476C29.1603 16.6217 29.1833 16.7059 29.1835 16.7918V30.4291ZM22.7772 23.7756C22.7529 23.8134 22.7192 23.8443 22.6794 23.8653C22.6396 23.8863 22.5951 23.8968 22.5501 23.8956C22.4694 23.9636 22.3935 24.037 22.323 24.1154C22.4035 24.1154 22.323 24.2355 22.4035 24.2355C22.2384 24.4151 22.4655 24.7944 22.2384 24.8742C21.9411 24.9538 21.628 24.9538 21.3307 24.8742C21.3749 24.8647 21.42 24.8603 21.4652 24.8613H21.5337C21.5842 24.8673 21.6354 24.8609 21.6828 24.8423C21.7301 24.8237 21.7722 24.7937 21.8051 24.755V24.5939C21.8051 24.5536 21.764 24.5536 21.7246 24.5536C21.7034 24.5762 21.6748 24.5905 21.644 24.5939C21.642 24.5576 21.6291 24.5228 21.607 24.4941C21.5848 24.4653 21.5545 24.4439 21.52 24.4328C21.4129 24.447 21.304 24.4344 21.203 24.3961C21.1021 24.3576 21.0122 24.2947 20.9417 24.2129C21.0509 24.1604 21.1746 24.1462 21.2929 24.1726C21.3959 24.1726 21.3549 23.993 21.4789 23.9133H21.6029C21.8502 23.6137 22.3045 23.5339 22.3874 23.2343C22.3874 23.1538 22.1603 23.1538 21.9952 23.1143C21.7744 23.0873 21.5506 23.1009 21.3347 23.1546C21.0449 23.1945 20.7609 23.2683 20.4882 23.3745C20.714 23.2087 20.965 23.0807 21.2316 22.9951C21.4188 22.923 21.6124 22.8691 21.8099 22.834L21.9162 22.8131L22.0234 22.7913C22.1695 22.7477 22.3251 22.7477 22.4712 22.7913C22.6572 22.8719 22.9665 22.8719 23.0076 22.9911C23.0881 23.211 22.8836 23.43 22.6572 23.5903C22.6113 23.6556 22.7772 23.6991 22.7772 23.7756Z" fill="white"/>
<path d="M42.2813 5.01562H21.6948C20.8052 5.01562 20.084 5.73682 20.084 6.62646V14.1185C20.084 15.0081 20.8052 15.7293 21.6948 15.7293H42.2813C43.1709 15.7293 43.8921 15.0081 43.8921 14.1185V6.62646C43.8921 5.73682 43.1709 5.01562 42.2813 5.01562Z" fill="#FCC63A"/>
<path d="M22.1465 14.0082V6.87891H24.4992C25.28 6.87891 25.8945 7.06903 26.3426 7.44925C26.7975 7.82948 27.025 8.34891 27.025 9.00753C27.025 9.65935 26.7975 10.1754 26.3426 10.5556C25.8945 10.9358 25.28 11.126 24.4992 11.126H23.5927V14.0082H22.1465ZM24.5603 8.11127H23.5927V9.8936H24.5603C24.8658 9.8936 25.1035 9.81551 25.2732 9.65935C25.4497 9.50318 25.538 9.27911 25.538 8.98716C25.538 8.71556 25.4497 8.50169 25.2732 8.34551C25.1035 8.18935 24.8658 8.11127 24.5603 8.11127Z" fill="#161616"/>
<path d="M28.3223 14.0082V6.87891H30.5018C31.2827 6.87891 31.9005 7.06903 32.3555 7.44925C32.8104 7.82948 33.0378 8.34891 33.0378 9.00753C33.0378 9.43528 32.9359 9.80872 32.7322 10.1278C32.5354 10.4402 32.257 10.6812 31.8971 10.851L34.1378 14.0082H32.4064L30.512 11.126H29.7685V14.0082H28.3223ZM30.5833 8.11127H29.7685V9.8936H30.5833C30.8888 9.8936 31.1265 9.81551 31.2962 9.65935C31.466 9.50318 31.5509 9.27911 31.5509 8.98716C31.5509 8.71556 31.466 8.50169 31.2962 8.34551C31.1265 8.18935 30.8888 8.11127 30.5833 8.11127Z" fill="#161616"/>
<path d="M38.2438 6.67578C38.8005 6.67578 39.3098 6.77763 39.7715 6.98132C40.24 7.18501 40.6406 7.45661 40.9733 7.7961C41.306 8.13559 41.564 8.5362 41.7473 8.9979C41.9306 9.45283 42.0223 9.9349 42.0223 10.4441C42.0223 10.9534 41.9306 11.4389 41.7473 11.9006C41.564 12.3555 41.306 12.7527 40.9733 13.0921C40.6406 13.4316 40.24 13.7033 39.7715 13.907C39.3098 14.1107 38.8005 14.2125 38.2438 14.2125C37.6871 14.2125 37.1744 14.1107 36.7059 13.907C36.2374 13.7033 35.8368 13.4316 35.5041 13.0921C35.1714 12.7527 34.9134 12.3555 34.73 11.9006C34.5467 11.4389 34.4551 10.9534 34.4551 10.4441C34.4551 9.9349 34.5467 9.45283 34.73 8.9979C34.9134 8.5362 35.1714 8.13559 35.5041 7.7961C35.8368 7.45661 36.2374 7.18501 36.7059 6.98132C37.1744 6.77763 37.6871 6.67578 38.2438 6.67578ZM38.2438 12.8579C38.5765 12.8579 38.8821 12.7968 39.1604 12.6746C39.4456 12.5456 39.6866 12.3759 39.8835 12.1654C40.0872 11.9481 40.2468 11.6935 40.3623 11.4015C40.4777 11.1028 40.5353 10.7836 40.5353 10.4441C40.5353 10.1047 40.4777 9.78892 40.3623 9.49696C40.2468 9.1982 40.0872 8.94359 39.8835 8.7331C39.6866 8.51583 39.4456 8.34608 39.1604 8.22387C38.8821 8.09485 38.5765 8.03036 38.2438 8.03036C37.911 8.03036 37.6022 8.09485 37.317 8.22387C37.0318 8.34608 36.7873 8.51583 36.5836 8.7331C36.3868 8.94359 36.2306 9.1982 36.1152 9.49696C35.9997 9.78892 35.942 10.1047 35.942 10.4441C35.942 10.7836 35.9997 11.1028 36.1152 11.4015C36.2306 11.6935 36.3868 11.9481 36.5836 12.1654C36.7873 12.3759 37.0318 12.5456 37.317 12.6746C37.6022 12.7968 37.911 12.8579 38.2438 12.8579Z" fill="#161616"/>
</g>
</g>
<defs>
<clipPath id="clip0_4794_38715">
<rect width="43.4925" height="47" fill="white" transform="translate(0.753906)"/>
</clipPath>
<clipPath id="clip1_4794_38715">
<rect width="43.4925" height="38.66" fill="white" transform="translate(0.753906 4.20703)"/>
</clipPath>
</defs>
</svg>
