<svg width="1502" height="486" viewBox="0 0 1502 486" fill="none" xmlns="http://www.w3.org/2000/svg">
<path d="M46.1875 153.554H63.3458C75.8415 153.554 83.4881 159.317 83.4881 168.81C83.4881 174.912 80.1311 179.659 74.536 182.032L92.2538 204.746H78.639L63.7188 184.066H57.5642V204.746H46.1875V153.554ZM57.5642 162.368V175.082H64.0918C68.9409 175.082 71.7384 172.709 71.7384 168.64C71.7384 164.742 68.9409 162.368 64.0918 162.368H57.5642Z" fill="black"/>
<path d="M99.3398 153.556H132.164V162.371H110.717V174.237H128.994V183.051H110.717V195.934H132.164V204.749H99.3398V153.556ZM110.53 149.149L119.669 139.317H131.418L120.974 149.149H110.53Z" fill="black"/>
<path d="M145.594 153.554H164.244C176.74 153.554 184.2 159.317 184.2 168.81C184.2 178.302 176.553 184.066 164.244 184.066H157.157V204.746H145.78L145.594 153.554ZM156.97 162.368V175.082H164.617C169.466 175.082 172.264 172.709 172.264 168.64C172.264 164.742 169.28 162.368 164.617 162.368H156.97Z" fill="black"/>
<path d="M226.906 153.554H238.283V184.744C238.283 198.305 229.517 206.272 215.343 206.272C201.169 206.272 192.59 198.135 192.59 184.744V153.554H203.967V185.591C203.967 192.541 208.256 196.44 215.343 196.44C222.43 196.44 226.72 192.372 226.72 185.591V153.554H226.906Z" fill="black"/>
<path d="M252.461 153.554H268.5C280.25 153.554 287.337 158.809 287.337 167.454C287.337 171.522 285.286 175.082 281.369 177.624C287.337 179.998 290.694 184.405 290.694 189.829C290.694 199.152 282.674 204.916 269.806 204.916H252.647V153.554H252.461ZM263.838 162.368V173.556H268.687C272.976 173.556 275.587 171.522 275.587 167.962C275.587 164.572 273.163 162.368 268.687 162.368H263.838ZM263.838 182.54V195.932H270.365C275.774 195.932 278.944 193.389 278.944 189.151C278.944 184.913 275.774 182.54 270.365 182.54H263.838Z" fill="black"/>
<path d="M302.441 153.554H313.818V195.423H335.266V204.916H302.441V153.554Z" fill="black"/>
<path d="M345.336 153.554H356.713V204.916H345.336V153.554Z" fill="black"/>
<path d="M431.689 208.305C432.808 208.305 434.487 208.136 435.792 207.797V216.611C433.927 217.289 432.249 217.629 429.824 217.629C423.483 217.629 417.702 215.255 412.106 210.848L405.392 205.424C402.968 205.932 400.357 206.271 397.746 206.271C379.841 206.271 367.719 193.897 367.719 179.149C367.719 164.571 379.841 152.027 397.746 152.027C415.464 152.027 427.586 164.402 427.586 179.149C427.586 187.794 423.483 195.592 416.396 200.508L419.753 203.389C424.229 206.949 428.146 208.305 431.689 208.305V208.305ZM415.837 179.149C415.837 169.318 408.19 161.859 397.746 161.859C387.115 161.859 379.468 169.487 379.468 179.149C379.468 188.981 387.115 196.44 397.746 196.44C408.19 196.44 415.837 188.981 415.837 179.149Z" fill="black"/>
<path d="M471.973 153.554H483.35V184.744C483.35 198.305 474.584 206.272 460.41 206.272C446.235 206.272 437.656 198.135 437.656 184.744V153.554H449.033V185.591C449.033 192.541 453.323 196.44 460.41 196.44C467.497 196.44 471.786 192.372 471.786 185.591L471.973 153.554Z" fill="black"/>
<path d="M497.523 153.554H530.348V162.368H508.9V174.234H527.177V183.049H508.9V195.932H530.348V204.746H497.523V153.554Z" fill="black"/>
<path d="M46.1875 227.459H79.0121V236.274H57.5642V248.139H75.8415V256.954H57.5642V278.652H46.1875V227.459Z" fill="black"/>
<path d="M89.082 227.459H106.24C118.736 227.459 126.383 233.222 126.383 242.715C126.383 248.818 123.026 253.564 117.431 255.937L135.148 278.652H121.534L106.613 257.971H100.645V278.652H89.2685L89.082 227.459ZM100.645 236.274V249.157H107.173C112.022 249.157 114.819 246.783 114.819 242.715C114.819 238.816 112.022 236.443 107.173 236.443L100.645 236.274Z" fill="black"/>
<path d="M159.018 227.459H173.938L195.386 278.821H183.264L177.855 265.43H155.102L149.693 278.821H137.57L159.018 227.459ZM174.125 256.446L166.478 237.121L158.645 256.446H174.125Z" fill="black"/>
<path d="M203.969 227.459H218.703L243.88 264.243V227.459H255.257V278.821H240.523L215.345 242.037V278.821H203.969V227.459Z" fill="black"/>
<path d="M311.021 263.4L319.974 269.672C315.684 275.096 308.783 278.825 300.577 279.842L293.49 290.522H283.419L290.506 279.673C275.772 277.3 266.074 266.112 266.074 253.059C266.074 238.481 278.197 225.938 296.101 225.938C306.359 225.938 314.752 230.175 319.787 236.278L310.835 242.719C307.664 238.481 302.442 235.769 296.101 235.769C285.471 235.769 277.824 243.397 277.824 253.059C277.824 262.891 285.471 270.35 296.101 270.35C302.815 270.35 307.851 267.637 311.021 263.4V263.4Z" fill="black"/>
<path d="M343.843 227.459H358.764L380.211 278.821H368.089L362.68 265.43H340.113L334.705 278.821H322.582L343.843 227.459ZM359.137 256.446L351.49 237.121L343.843 256.446H359.137Z" fill="black"/>
<path d="M388.98 227.459H400.357V278.821H388.98V227.459Z" fill="black"/>
<path d="M419.378 264.585C422.735 268.484 427.211 270.857 431.874 270.857C436.35 270.857 439.147 268.653 439.147 264.924C439.147 255.77 413.41 257.804 413.41 240.684C413.41 232.547 420.684 225.767 431.501 225.767C439.893 225.767 446.421 229.157 451.27 234.412L442.877 241.192C439.52 237.293 435.79 234.751 431.501 234.751C427.584 234.751 424.973 237.124 424.973 240.175C424.973 249.329 450.711 247.125 450.711 264.585C450.524 274.078 442.318 280.01 432.06 280.01C422.549 280.01 416.021 276.79 411.172 271.365L419.378 264.585Z" fill="black"/>
<path d="M462.836 227.459H495.661V236.274H474.213V248.139H492.49V256.954H474.213V269.837H495.661V278.652H462.836V227.459Z" fill="black"/>
<path d="M229.707 420.371C231.199 420.371 232.504 421.388 231.945 424.101L224.858 425.626C226.163 422.575 228.215 420.371 229.707 420.371ZM233.81 430.712H232.318C230.453 432.576 228.588 434.102 226.723 434.102C224.858 434.102 223.739 433.085 223.739 430.712C223.739 429.694 223.925 428.677 224.112 427.83L235.488 424.44C237.726 419.693 235.115 417.49 231.945 417.49C226.536 417.49 220.381 425.796 220.381 432.915C220.381 436.136 222.06 438.001 224.671 438.001C227.842 438.001 231.012 435.288 233.81 430.712ZM231.385 415.625L239.405 408.845V407.997H235.115L230.08 415.625H231.385ZM206.767 420.371H210.497L204.529 435.458C203.969 436.814 204.715 438.001 206.207 438.001C209.564 438.001 215.159 434.949 217.211 430.712H216.092C214.6 432.237 211.616 434.102 209.191 434.61L214.786 420.541H220.381L221.127 418.337H215.532L217.584 412.913H215.346L211.429 418.337L206.767 419.015V420.371ZM201.545 419.693C201.918 418.337 200.985 417.49 200.239 417.49C196.882 417.49 192.965 420.202 191.473 423.931H192.592C193.711 422.575 195.577 421.049 197.255 420.71L190.914 435.627C190.354 436.983 191.473 437.831 192.219 437.831C195.39 437.831 199.12 435.119 200.612 431.39H199.493C198.374 432.746 196.509 434.271 194.831 434.61L201.545 419.693ZM202.664 412.235C204.156 412.235 205.461 411.218 205.461 409.692C205.461 408.336 204.156 407.149 202.664 407.149C201.172 407.149 199.866 408.336 199.866 409.692C200.053 411.048 201.172 412.235 202.664 412.235ZM166.296 435.288C165.55 436.983 166.296 438.001 168.161 438.001C169.28 438.001 169.839 437.662 170.212 436.644L174.688 426.135C176.74 423.931 180.843 421.388 182.521 421.388C183.64 421.388 183.64 422.236 182.708 423.592L175.994 435.288C175.248 436.475 176.18 437.831 177.672 437.831C181.029 437.831 184.946 435.119 186.438 431.39H185.319C184.2 432.746 182.335 434.271 180.656 434.61L186.438 423.931C187.184 422.575 187.557 421.219 187.557 420.202C187.557 418.507 186.438 417.32 184.573 417.32C181.775 417.32 178.791 420.202 175.434 423.931V421.219C175.434 419.185 174.688 417.49 172.823 417.49C171.518 417.49 170.399 418.507 169.28 419.863V420.202C171.518 420.032 172.45 423.084 170.772 426.135L166.296 435.288ZM166.296 422.066C167.042 419.693 166.669 417.49 164.617 417.49C162.192 417.49 161.633 419.185 159.022 424.101V421.388C159.022 419.354 158.276 417.659 156.411 417.659C154.173 417.659 151.935 420.88 150.443 424.101H151.562C152.681 422.575 153.8 421.727 154.546 421.727C155.478 421.727 156.038 423.084 154.546 426.135L150.07 435.119C149.324 436.814 150.07 437.831 151.935 437.831C153.054 437.831 153.613 437.492 153.986 436.475L158.462 425.965C159.768 424.609 160.887 423.423 162.192 422.066H166.296ZM140.745 420.371C142.237 420.371 143.542 421.388 142.983 424.101L135.896 425.626C137.015 422.575 139.253 420.371 140.745 420.371V420.371ZM144.661 430.712H143.169C141.304 432.576 139.439 434.102 137.574 434.102C135.709 434.102 134.59 433.085 134.59 430.712C134.59 429.694 134.776 428.677 134.963 427.83L146.34 424.44C148.578 419.693 145.967 417.49 142.796 417.49C137.388 417.49 131.233 425.796 131.233 432.915C131.233 436.136 132.911 438.001 135.523 438.001C138.88 438.001 142.05 435.288 144.661 430.712ZM117.805 420.371H121.535L115.567 435.458C115.007 436.814 115.753 438.001 117.245 438.001C120.602 438.001 126.197 434.949 128.249 430.712H127.13C125.638 432.237 122.654 434.102 120.229 434.61L125.824 420.541H131.419L132.165 418.337H126.57L128.622 412.913H126.384L122.467 418.337L117.805 419.015V420.371ZM96.9164 432.068C96.9164 427.491 102.511 421.219 105.682 421.219C106.428 421.219 106.988 421.219 107.547 421.388L104.19 429.355C102.325 431.39 99.3409 434.102 98.0354 434.102C97.2894 434.102 96.9164 433.593 96.9164 432.068V432.068ZM114.261 416.642L112.583 416.473L110.718 418.168H110.345C100.833 418.168 92.8133 427.83 92.8133 434.78C92.8133 436.814 94.1188 437.831 96.1703 437.831C98.5949 437.831 101.019 434.61 103.63 431.22L103.444 432.407C103.071 435.797 104.19 437.662 106.242 437.662C108.48 437.662 110.718 434.441 112.21 431.22H111.091C109.972 432.746 108.853 433.593 108.107 433.593C107.174 433.593 106.615 432.237 108.107 429.186L114.261 416.642ZM94.1188 422.066C94.8648 419.693 94.4918 417.49 92.4403 417.49C90.0157 417.49 89.4562 419.185 86.8452 424.101V421.388C86.8452 419.354 86.0992 417.659 84.2341 417.659C81.9961 417.659 79.7581 420.88 78.266 424.101H79.3851C80.5041 422.575 81.6231 421.727 82.3691 421.727C83.3016 421.727 83.8611 423.084 82.3691 426.135L77.893 435.119C77.147 436.814 77.893 437.831 79.7581 437.831C80.8771 437.831 81.4366 437.492 81.8096 436.475L86.2857 425.965C87.5912 424.609 88.7102 423.423 90.0157 422.066H94.1188ZM62.4133 437.323L62.7863 436.136C57.1912 435.119 56.6317 435.119 58.6832 429.694L60.9212 424.101H67.0759C69.8734 424.101 69.8734 425.118 69.5004 427.83H70.9924L74.7225 418.846H73.2305C71.9249 421.049 70.8059 422.575 67.8219 422.575H61.6673L64.8378 414.608C65.7703 412.065 66.3298 411.557 70.0599 411.557H72.6709C76.5875 411.557 76.9605 412.574 76.9605 415.964H78.4525L79.7581 409.862H57.1912L56.8182 411.048C61.2943 411.896 61.6673 412.235 59.6157 417.49L54.5801 429.864C52.5286 434.949 51.5961 435.458 46.5605 436.305L46.1875 437.492L62.4133 437.323Z" fill="black"/>
<path d="M174.315 373.239C175.807 373.239 177.113 374.256 176.553 376.968L169.466 378.494C170.772 375.612 172.823 373.239 174.315 373.239ZM178.418 383.749H176.926C175.061 385.613 173.196 387.139 171.331 387.139C169.466 387.139 168.347 386.122 168.347 383.749C168.347 382.732 168.534 381.715 168.72 380.867L180.097 377.477C182.335 372.73 179.724 370.527 176.553 370.527C171.145 370.527 164.99 378.833 164.99 385.952C164.99 389.173 166.669 391.038 169.28 391.038C172.45 391.038 175.621 388.156 178.418 383.749ZM175.994 368.662L184.013 361.882V361.034H179.724L174.688 368.662H175.994ZM151.375 373.408H155.105L149.137 388.495C148.578 389.851 149.324 391.038 150.816 391.038C154.173 391.038 159.768 387.986 161.819 383.749H160.7C159.208 385.274 156.224 387.139 153.8 387.647L159.395 373.578H164.99L165.736 371.374H160.141L162.192 365.95H159.954L156.038 371.374L151.375 372.052V373.408ZM146.153 372.73C146.526 371.374 145.594 370.527 144.848 370.527C141.491 370.527 137.574 373.239 136.082 376.968H137.201C138.32 375.612 140.185 374.086 141.864 373.747L135.522 388.665C134.963 390.021 136.082 390.868 136.828 390.868C139.999 390.868 143.729 388.156 145.221 384.427H144.102C142.983 385.783 141.118 387.308 139.439 387.647L146.153 372.73ZM147.272 365.272C148.764 365.272 150.07 364.255 150.07 362.729C150.07 361.373 148.764 360.186 147.272 360.186C145.78 360.186 144.475 361.373 144.475 362.729C144.661 364.085 145.78 365.272 147.272 365.272ZM125.265 387.647L136.828 360.186L136.455 359.847L129.181 360.526V361.373L130.673 362.39C131.979 363.238 131.606 364.085 130.3 366.967L121.348 388.495C120.602 389.682 121.535 391.038 123.027 391.038C126.384 391.038 129.927 388.326 131.419 384.596H130.3C129.181 385.952 127.13 387.478 125.265 387.647V387.647ZM103.444 385.105C103.444 380.528 109.039 374.256 112.21 374.256C112.956 374.256 113.515 374.256 114.075 374.426L110.718 382.393C108.853 384.427 105.868 387.139 104.563 387.139C104.003 387.139 103.444 386.461 103.444 385.105ZM120.789 369.679L119.11 369.51L117.245 371.205H116.872C107.361 371.205 99.3409 380.867 99.3409 387.817C99.3409 389.851 100.646 390.868 102.698 390.868C105.122 390.868 107.547 387.647 110.158 384.257L109.972 385.444C109.599 388.834 110.718 390.699 112.769 390.699C115.007 390.699 117.245 387.478 118.737 384.257H117.618C116.499 385.783 115.38 386.63 114.634 386.63C113.702 386.63 113.142 385.274 114.634 382.223L120.789 369.679ZM78.639 394.597C78.639 392.563 80.6906 391.377 83.8611 390.19C84.7936 390.699 86.2857 391.207 88.3372 391.716C91.5078 392.733 92.6268 393.072 92.6268 393.919C92.6268 395.784 89.2697 397.14 84.6071 397.14C80.6906 397.31 78.639 396.462 78.639 394.597V394.597ZM87.2182 382.562C85.9127 382.562 85.3532 381.545 85.3532 380.358C85.3532 376.968 87.4047 372.052 90.3887 372.052C91.6943 372.052 92.2538 373.069 92.2538 374.256C92.4403 377.477 90.3887 382.562 87.2182 382.562ZM96.1703 392.733C96.1703 390.36 93.7458 389.512 90.0157 388.326C86.6587 387.478 85.1666 387.139 85.1666 386.122C85.1666 385.274 85.9127 384.427 87.2182 383.749C92.6268 383.41 96.1703 379.002 96.1703 375.273C96.1703 374.426 95.9838 373.747 95.7973 373.239H100.46L101.206 371.035H93.9323C92.9998 370.527 92.0673 370.357 90.9482 370.357C85.1667 370.357 81.4366 374.934 81.4366 378.663C81.4366 381.545 83.4881 383.24 85.9127 383.749C83.3016 384.766 81.8096 386.122 81.8096 387.647C81.8096 388.495 82.1826 389.173 82.9286 389.682C76.774 391.377 74.3495 393.241 74.3495 395.954C74.3495 398.496 78.0795 399.683 82.5556 399.683C90.0157 399.683 96.1703 395.954 96.1703 392.733V392.733ZM67.2624 376.629C70.0599 376.629 70.0599 377.646 69.6869 380.358H71.1789L74.909 371.374H73.417C72.1114 373.578 70.9924 375.104 68.0084 375.104H61.8538L64.8378 367.476C65.7703 364.933 66.3298 364.424 70.0599 364.424H72.6709C76.5875 364.424 76.9605 365.441 76.9605 368.832H78.4525L79.7581 362.729H57.1912L56.8182 363.916C61.2943 364.763 61.6673 365.102 59.6157 370.357L54.5801 382.732C52.5286 387.817 51.5961 388.326 46.5605 389.173L46.1875 390.36H71.5519L76.028 383.749H74.3495C71.3654 386.291 67.8219 388.665 62.7863 388.665C56.0722 388.665 56.6317 388.326 58.8697 382.732L61.2943 376.799L67.2624 376.629ZM70.6194 360.865L78.639 355.779V354.932H73.79L69.3139 360.695H70.6194V360.865Z" fill="black"/>
<path d="M171.704 326.286C173.196 326.286 174.502 327.303 173.942 330.015L166.855 331.54C167.974 328.489 170.026 326.286 171.704 326.286ZM175.621 336.795H174.129C172.264 338.66 170.399 340.186 168.534 340.186C166.669 340.186 165.549 339.169 165.549 336.795C165.549 335.778 165.736 334.761 165.923 333.914L177.299 330.523C179.537 325.777 176.926 323.573 173.756 323.573C168.347 323.573 162.192 331.879 162.192 338.999C162.192 342.22 163.871 344.084 166.482 344.084C169.839 343.915 173.01 341.203 175.621 336.795ZM173.383 321.539L181.402 314.759V313.911H177.113L172.077 321.539H173.383ZM149.697 326.455H152.681L146.713 341.542C146.153 342.898 146.899 344.084 148.391 344.084C151.748 344.084 157.343 341.033 159.395 336.795H158.276C156.784 338.321 153.8 340.186 151.375 340.694L156.97 326.625H162.565L163.311 324.421H157.716L159.768 318.997H157.53L153.613 324.421L149.697 325.099V326.455ZM146.713 328.15C147.459 325.777 147.086 323.573 145.034 323.573C142.61 323.573 142.05 325.269 139.439 330.184V327.472C139.439 325.438 138.693 323.743 136.828 323.743C134.59 323.743 132.352 326.964 130.86 330.184H131.792C132.911 328.659 134.03 327.811 134.776 327.811C135.709 327.811 136.269 329.167 134.776 332.218L130.3 341.203C129.554 342.898 130.3 343.915 132.165 343.915C133.284 343.915 133.844 343.576 134.217 342.559L138.693 332.049C139.999 330.693 141.118 329.506 142.423 328.15H146.713ZM121.348 326.286C122.84 326.286 124.146 327.303 123.586 330.015L116.499 331.54C117.618 328.489 119.67 326.286 121.348 326.286V326.286ZM125.265 336.795H123.773C121.908 338.66 120.043 340.186 118.178 340.186C116.313 340.186 115.194 339.169 115.194 336.795C115.194 335.778 115.38 334.761 115.567 333.914L126.943 330.523C129.181 325.777 126.57 323.573 123.4 323.573C117.991 323.573 111.837 331.879 111.837 338.999C111.837 342.22 113.515 344.084 116.126 344.084C119.297 343.915 122.654 341.203 125.265 336.795ZM97.1028 340.864C95.9838 340.864 94.3053 339.847 94.3053 339.169C94.3053 338.829 94.8648 337.812 95.4243 336.287L97.2894 331.879C99.3409 329.676 102.325 327.472 104.003 327.472C105.122 327.472 105.868 328.15 105.868 329.506C105.868 333.405 101.765 340.864 97.1028 340.864V340.864ZM110.158 327.642C110.158 324.59 108.853 323.404 106.615 323.404C103.63 323.404 101.019 326.116 98.2219 329.506L105.122 313.064L104.749 312.725L97.4759 313.403V314.25L98.9679 315.267C100.273 316.115 99.9004 317.132 98.5949 319.844L91.1348 337.304C90.5752 338.66 90.0157 340.016 90.0157 340.525C90.0157 342.389 92.6268 344.084 95.2378 344.084C100.833 343.915 110.158 334.761 110.158 327.642V327.642ZM87.5912 325.777C87.9642 324.421 87.0317 323.573 86.2857 323.573C82.9286 323.573 79.012 326.286 77.52 330.015H78.639C79.7581 328.659 81.6231 327.133 83.3016 326.794L76.9605 341.711C76.401 343.067 77.52 343.915 78.266 343.915C81.4366 343.915 85.1666 341.203 86.6587 337.473H85.5397C84.4206 338.829 82.5556 340.355 80.8771 340.694L87.5912 325.777ZM88.8967 318.149C90.3887 318.149 91.6943 317.132 91.6943 315.606C91.6943 314.25 90.3887 313.064 88.8967 313.064C87.4047 313.064 86.0992 314.25 86.0992 315.606C86.0992 317.132 87.2182 318.149 88.8967 318.149ZM72.1114 315.776H57.0047L56.6317 316.962C61.1077 317.81 61.4808 318.149 59.4292 323.404L54.5801 335.778C52.5286 340.864 51.5961 341.372 46.5605 342.22L46.1875 343.406H69.1274L74.163 335.439H72.4844C69.6869 338.321 66.3298 341.711 61.2943 341.711C57.3777 341.711 57.0047 341.033 59.0562 335.778L63.9053 323.404C65.9568 318.319 66.8893 317.81 71.9249 316.962L72.1114 315.776Z" fill="black"/>
<path d="M131.232 111.346C131.978 110.668 132.91 109.821 133.656 108.973C135.149 107.447 136.641 105.922 138.319 104.566C138.879 104.057 139.438 103.718 139.811 103.379C139.998 103.21 139.998 103.04 140.184 102.871C139.438 103.21 139.065 103.718 138.319 103.888C138.133 103.888 137.946 103.718 138.133 103.549C138.692 103.21 139.065 102.871 139.625 102.532C139.625 102.532 139.625 102.532 139.438 102.532C139.252 102.532 139.252 102.362 139.252 102.193C137.387 101.854 136.081 103.04 134.775 104.057C134.402 104.227 134.216 103.888 134.029 103.888C131.978 104.566 130.299 106.261 128.248 106.939C128.248 106.769 128.248 106.769 128.248 106.6C127.315 106.939 126.569 107.278 125.637 107.447C124.331 107.787 123.212 107.617 122.093 107.617C120.415 107.787 118.736 108.126 116.871 108.465H116.685C115.752 108.634 114.82 108.973 114.074 109.482C114.074 109.482 114.074 109.482 113.887 109.482L113.701 109.651C113.328 109.99 113.141 110.16 112.768 110.499C111.836 110.838 111.276 111.685 110.344 112.194H110.157C109.411 112.872 108.665 113.55 107.919 114.228C107.919 114.228 107.733 114.228 107.546 114.228C107.36 114.228 107.546 114.228 107.546 114.058C107.733 113.889 107.733 113.719 107.919 113.55C108.106 113.38 108.106 113.211 108.292 112.872C108.479 112.533 108.665 112.363 108.852 112.024V111.855H108.665C109.411 111.177 110.157 110.668 111.09 110.16C110.903 110.16 110.903 110.16 110.903 109.99C110.903 109.821 111.09 109.821 111.09 109.651C111.09 109.651 111.09 109.651 111.09 109.482C111.09 109.482 111.09 109.482 110.903 109.312C110.717 109.482 110.344 109.651 110.157 109.651C109.784 109.99 109.598 110.499 109.038 110.499H108.852H108.665C108.665 110.499 108.665 110.499 108.665 110.329C108.665 110.329 108.665 110.329 108.665 110.16C108.665 110.16 108.665 110.16 108.665 109.99C108.665 109.99 108.665 109.821 108.852 109.821C108.852 109.821 108.852 109.821 108.852 109.651C108.852 109.482 109.038 109.482 109.038 109.312V109.143L109.225 108.973C109.225 108.804 109.225 108.804 109.038 108.804C109.225 108.465 109.598 108.295 109.971 107.956C110.53 107.787 111.09 107.447 111.649 107.108L111.836 106.939C111.09 107.108 110.344 107.447 109.598 107.956C109.598 107.956 109.411 107.956 109.411 108.126C109.411 108.126 109.225 108.126 109.038 107.956C109.038 107.956 109.038 107.956 109.038 107.787C109.225 107.447 109.598 107.447 109.971 107.108C110.157 107.108 110.344 107.108 110.344 107.278C114.82 104.057 121.161 104.905 126.383 103.21C126.756 102.871 127.315 102.701 127.688 102.362C128.434 102.023 128.994 101.515 129.74 101.006C130.859 100.158 131.791 99.3109 132.164 98.1243C132.164 97.9548 131.978 97.7853 131.978 97.7853C130.113 99.6499 128.061 101.006 125.823 102.023C122.839 103.379 119.669 103.21 116.498 103.549C116.685 103.21 116.871 103.21 117.244 103.21C117.244 102.871 117.617 102.701 117.804 102.362H118.177C118.363 102.362 118.363 102.023 118.55 102.023C118.923 102.023 119.296 101.854 119.109 101.854C118.736 101.345 117.804 102.193 117.058 101.854C117.431 101.515 117.244 101.176 117.431 101.006H117.99C117.99 100.667 118.363 100.498 118.363 100.498C120.415 99.3109 122.466 98.4634 124.518 97.4463C124.145 97.4463 123.772 97.7853 123.399 97.6158C123.772 97.6158 123.399 97.2768 123.772 97.2768C125.264 96.9377 126.569 96.0902 128.248 95.5817C127.688 95.5817 127.315 95.9207 126.756 95.5817C127.129 95.4121 127.129 95.2426 127.688 95.2426C127.688 95.0731 127.688 94.9036 127.688 94.9036C127.688 94.7341 127.875 94.7341 128.061 94.7341C127.875 94.7341 127.688 94.5646 127.688 94.5646C127.875 94.2256 128.248 94.3951 128.621 94.2256C128.434 94.2256 128.248 94.2256 128.248 94.056C128.621 93.5475 129.367 93.378 130.113 93.2085C129.926 92.8695 129.553 93.2085 129.553 92.8695C129.553 92.6999 129.74 92.6999 129.926 92.6999C129.74 92.6999 129.74 92.6999 129.553 92.6999C129.18 92.5304 129.367 92.3609 129.367 92.1914C130.299 91.3439 130.299 90.1573 130.672 89.1402C130.486 89.1402 130.299 89.1402 130.299 88.9707C128.807 90.3268 126.569 90.8353 124.518 91.3439C124.331 91.3439 123.958 91.3439 123.772 91.3439C123.026 91.6829 122.093 91.6829 121.347 91.1743C120.788 90.8353 120.415 90.4963 119.855 90.1573C118.736 89.4792 117.617 88.9707 116.312 88.6317C113.141 89.4792 109.411 88.9707 105.681 89.1402C107.173 88.2926 109.038 88.2926 110.717 87.7841C113.141 87.1061 115.379 86.428 117.99 86.428C117.617 86.2585 117.058 86.428 116.498 86.428C114.447 86.2585 112.582 86.767 110.344 87.2756C108.852 87.6146 107.733 88.1231 106.241 88.2926C105.308 88.6317 104.935 89.3097 104.002 89.1402V88.8012C105.495 87.2756 107.173 85.75 109.411 85.5804C112.022 85.2414 114.447 85.5804 116.871 85.9195C118.736 86.089 120.415 86.428 122.28 86.767C123.026 86.767 123.212 87.7841 123.772 87.9536C124.704 88.2926 125.45 87.9536 126.383 88.4621C126.383 88.1231 126.196 87.9536 126.383 87.6146C126.942 87.1061 127.688 87.7841 128.248 87.4451C129.367 86.767 127.315 85.5804 126.756 84.7329C126.756 84.5634 126.942 84.3939 126.942 84.3939C128.061 85.2414 128.994 86.2585 130.299 86.9365C131.045 87.2756 132.724 87.6146 132.351 86.767C131.605 85.4109 130.299 84.2243 129.18 82.8683C129.18 82.6987 129.18 82.5292 129.18 82.3597C128.807 82.3597 128.807 82.1902 128.807 82.0207C128.807 81.8512 128.807 81.6817 128.807 81.5122C128.248 81.1731 128.434 80.6646 128.061 80.3256C127.688 79.6475 127.875 78.8 127.688 77.9524C127.502 77.1048 127.315 76.5963 127.129 75.7488C126.756 73.5451 126.196 71.6805 125.823 69.6463C125.45 67.2732 127.315 65.239 128.621 63.0354C129.553 61.5097 130.672 59.9841 132.537 58.9671C132.91 57.4415 134.029 56.0854 135.149 54.8988C136.268 53.7122 138.133 52.8646 139.438 52.3561C141.49 51.5085 143.168 51 143.168 51H46V119.144H114.82C117.431 117.449 120.228 116.601 123.958 114.906C125.823 114.397 129.74 112.702 131.232 111.346V111.346ZM109.411 102.193C109.038 102.193 108.479 102.362 108.665 102.023C108.852 101.345 109.784 101.345 110.344 101.176C110.717 101.006 111.09 100.837 111.276 100.837C111.649 101.176 112.022 101.176 112.209 101.345C111.463 102.193 110.344 101.854 109.411 102.193ZM87.7767 99.3109C87.7767 99.3109 87.5902 99.1414 87.5902 98.9719C89.4552 96.7682 90.7608 94.7341 92.0663 92.3609C93.9313 91.5134 95.4233 90.1573 96.9154 88.8012C99.3399 86.428 101.951 84.3939 104.935 83.2073C106.054 82.8683 107.546 82.8683 108.665 83.3768C108.292 83.8853 107.546 83.7158 106.987 84.2243C106.8 84.2243 106.614 84.2243 106.614 84.0548C106.8 83.8853 106.8 83.7158 106.8 83.7158C105.308 85.0719 103.443 85.75 102.324 87.4451C101.391 88.8012 100.832 90.3268 99.1534 90.8353C98.5939 91.0048 99.3399 90.4963 98.9669 90.4963C94.3043 92.8695 91.1338 95.9207 87.7767 99.3109V99.3109ZM99.5264 90.8353C99.3399 91.1743 99.1534 91.1743 99.1534 91.3439C98.9669 91.6829 98.7804 91.6829 98.5939 91.8524C98.4074 91.8524 98.2209 91.8524 98.2209 91.6829C98.4074 91.1743 98.7804 90.6658 99.3399 90.4963C99.5264 90.6658 99.5264 90.6658 99.5264 90.8353V90.8353ZM106.054 110.16C106.054 110.329 105.868 110.499 105.681 110.499C105.868 110.499 106.054 110.668 105.868 110.668C105.495 111.007 105.308 111.177 104.748 111.346H104.562C104.375 111.516 104.189 111.685 104.002 111.855C103.816 112.024 103.07 111.855 103.256 111.685C103.629 111.346 104.002 111.007 104.375 110.838C104.562 110.668 104.748 110.499 104.935 110.329L105.308 109.99C105.495 109.99 106.241 109.821 106.054 110.16ZM103.443 109.143C102.883 109.482 102.324 109.821 101.764 110.16C101.205 110.499 100.459 110.668 99.8994 111.007C99.3399 111.346 99.7129 110.838 99.7129 111.007C99.1534 111.346 98.7804 111.685 98.2209 112.024L98.0344 112.194L97.8479 112.363C97.6614 112.533 97.6614 112.533 97.4749 112.702L97.2884 112.872C97.2884 112.872 96.9154 112.872 96.9154 112.702C96.9154 112.533 96.7289 112.702 96.7289 112.872C96.7289 112.872 96.5424 112.872 96.5424 113.041C96.5424 113.041 96.5424 113.041 96.3558 113.041C96.3558 113.041 96.3558 113.041 96.1693 113.041C95.9828 113.211 95.7963 113.38 95.6098 113.38C95.2368 113.55 95.0503 113.889 94.8638 114.228C94.6773 114.567 94.8638 114.397 94.6773 114.397C94.4908 114.397 94.6773 114.397 94.4908 114.397C94.3043 114.397 94.4908 114.228 94.3043 114.228C94.4908 114.058 94.6773 113.889 94.6773 113.719L94.8638 113.55C94.8638 113.38 95.0503 113.38 95.0503 113.211C95.0503 113.211 95.0503 113.211 95.0503 113.041C95.2368 112.872 95.4233 112.702 95.4233 112.533C95.4233 112.363 95.6098 112.363 95.6098 112.194C95.6098 112.194 95.7963 112.024 95.7963 111.855C95.7963 111.685 95.9828 111.685 95.9828 111.516V111.346V111.177C95.9828 111.177 95.9828 111.177 95.9828 111.007C96.1693 110.838 96.3559 110.499 96.5424 110.329C96.3559 110.499 96.1693 110.668 95.9828 110.668C95.7963 110.838 95.6098 110.668 95.7963 110.499C95.9828 110.499 95.9828 110.329 96.1693 110.16C96.3558 109.99 96.5424 109.651 96.9154 109.482C97.1019 109.312 97.2884 109.312 97.2884 109.143C97.4749 108.973 97.4749 108.973 97.6614 108.804C98.9669 107.617 101.205 107.617 103.07 106.939C103.816 106.6 104.562 107.108 105.308 106.939C105.681 106.939 106.241 106.939 106.614 107.278C105.868 107.787 104.748 108.465 103.443 109.143V109.143ZM106.427 100.158C106.241 99.989 106.8 100.158 106.987 99.8195C106.614 99.8195 106.241 99.8195 105.868 99.8195C105.681 99.8195 105.681 99.6499 105.681 99.4804C104.935 99.6499 104.189 99.8195 103.443 99.989C102.51 100.328 101.578 100.837 100.459 101.176C98.9669 101.684 97.6614 102.871 95.9828 103.379C95.7963 103.379 95.7963 103.21 95.7963 103.04C95.9828 102.701 96.5424 102.532 96.7289 102.193C96.7289 102.023 96.7289 101.854 96.5424 101.854C97.6614 100.497 99.1534 99.6499 100.645 98.4634C100.645 98.2938 100.645 98.1243 100.645 98.1243C101.018 97.6158 101.764 97.2768 102.137 96.7682C102.324 96.4292 102.883 95.9207 103.629 95.5817C103.443 95.4121 103.256 95.4121 103.256 95.2426C102.697 95.2426 102.137 95.5817 101.578 95.0731C101.764 94.9036 102.137 94.7341 102.51 94.5646C102.324 94.5646 102.324 94.5646 102.137 94.3951C101.951 94.056 102.324 93.8865 102.883 93.717C103.443 93.5475 104.189 93.5475 104.562 93.2085C103.629 93.039 102.51 93.5475 101.391 92.8695C102.137 91.1743 103.256 89.8182 104.935 88.9707C105.121 88.9707 105.308 88.9707 105.308 89.1402C105.308 89.8182 104.935 90.3268 104.189 90.4963C105.308 90.8353 106.427 90.8353 107.546 91.3439C107.36 91.6829 107.173 91.5134 106.987 91.5134C107.733 91.8524 108.479 91.6829 109.225 92.1914C108.852 92.5304 108.292 92.1914 107.919 92.1914C112.395 93.378 117.058 94.2256 120.601 96.7682C117.431 98.1243 114.26 98.8024 110.903 99.4804C110.53 99.4804 110.157 99.4804 109.784 99.3109C109.784 99.4804 109.784 99.6499 109.598 99.6499C109.038 99.6499 108.665 99.6499 108.106 99.989C107.733 100.328 106.8 100.497 106.427 100.158V100.158Z" fill="#000091"/>
<path d="M252.084 51.3418H171.515C171.515 51.3418 171.701 51.3418 172.261 51.6808C173.007 52.0198 173.753 52.3589 174.312 52.6979C175.431 53.2064 176.364 53.8845 176.923 54.732C177.296 55.0711 177.669 55.9186 177.296 56.4272C176.923 57.1052 176.923 58.1223 176.177 58.2918C175.245 58.6308 174.126 58.6308 173.193 58.6308C172.634 58.6308 172.074 58.4613 171.515 58.2918C173.566 59.1393 175.618 59.9869 177.11 61.682C177.296 62.0211 177.856 62.0211 178.416 62.0211V62.5296C178.042 62.8686 177.856 62.8686 178.043 63.3772H178.416C179.162 63.0381 178.975 61.8515 179.908 62.1906C180.654 62.5296 180.84 63.5467 180.467 64.0552C179.908 64.5637 179.348 64.9028 178.789 65.4113C178.602 65.7503 178.602 66.0893 178.789 66.2589C179.162 66.7674 179.348 67.2759 179.535 67.7845C179.908 68.632 180.094 69.6491 180.467 70.6662C181.027 72.5308 181.586 74.5649 181.4 76.4296C181.4 77.4466 180.84 78.2942 181.213 79.3113C181.586 80.3284 182.146 81.1759 182.705 82.0235C183.265 82.871 183.824 83.3796 184.197 84.0576C185.13 85.4137 186.622 86.6003 185.876 88.1259C185.503 88.9735 183.824 88.9735 182.892 89.482C181.959 90.16 182.705 91.1771 183.265 91.8552C184.011 93.0418 182.332 93.7198 181.4 94.2283C181.773 94.5674 182.332 94.5674 182.332 94.7369C182.519 95.4149 183.265 95.7539 182.705 96.432C182.146 97.2795 180.467 97.6186 181.213 98.8052C181.773 99.6527 181.4 100.67 181.027 101.687C180.654 102.873 179.535 103.382 178.416 103.551C177.483 103.891 176.55 103.891 175.804 103.721C175.431 103.551 175.245 103.382 174.872 103.382C172.447 103.043 170.023 102.534 167.598 102.534C166.852 102.704 166.106 102.873 165.547 103.043C164.987 103.551 164.428 103.891 163.868 104.399C163.682 104.569 163.682 104.569 163.495 104.738L163.309 104.908C163.309 104.908 163.309 105.077 163.122 105.077C162.749 105.586 162.376 106.094 162.003 106.603V106.772C162.003 106.772 162.003 106.942 161.817 106.942C161.444 107.789 161.071 108.467 160.698 109.315C159.765 112.197 160.138 114.739 160.884 115.417C161.071 115.587 165.547 116.773 168.717 118.13C170.209 118.638 171.142 119.147 172.074 119.655H251.152V51.3418H252.084Z" fill="#E1000F"/>
<path d="M176.183 76.2574C176.743 76.4269 177.675 76.4269 177.675 76.5965C177.302 77.6135 175.624 77.9525 174.878 78.9696H174.505C174.131 79.3086 174.131 79.8172 173.758 79.8172C173.385 79.6477 172.826 79.8172 172.453 79.9867C173.012 80.4952 173.758 80.8343 174.505 80.8343C174.691 80.8343 174.878 81.1733 174.878 81.3428C174.878 81.3428 175.064 81.3428 175.251 81.1733C175.437 81.1733 175.624 81.1733 175.624 81.3428V81.8513C175.251 82.3599 174.504 82.1904 173.945 82.1904C175.064 82.5294 176.183 82.5294 177.116 82.1904C178.048 81.8513 177.116 80.6647 177.675 79.9867C177.302 79.9867 177.675 79.6477 177.302 79.6477C177.675 79.3086 177.862 78.9696 178.235 78.8001C178.608 78.8001 178.981 78.6306 179.167 78.4611C179.167 78.1221 178.608 78.1221 178.794 77.783C179.727 77.2745 180.286 76.4269 180.1 75.7489C179.913 75.4099 178.794 75.4099 178.048 75.0708C177.302 74.7318 176.556 75.0708 175.624 75.2404C174.878 75.2404 174.131 75.5794 173.572 75.7489C172.639 76.0879 171.707 76.5965 170.961 77.105C171.893 76.766 173.012 76.5965 174.131 76.2574C174.691 76.2574 175.437 75.9184 176.183 76.2574V76.2574Z" fill="#9D9D9C"/>
<path d="M1115.03 207.552H1138.19V268.782H1153.42V207.552H1176.58V193.719H1115.03V207.552ZM1206.34 258.059C1197.22 258.059 1190.68 251.303 1190.68 241.759C1190.68 232.323 1197.22 225.46 1206.12 225.46C1211.7 225.46 1215.99 227.926 1218.56 231.679L1229.18 223.53C1224.14 216.881 1216.2 212.592 1206.34 212.592C1187.68 212.592 1176.52 225.996 1176.52 241.759C1176.52 257.523 1187.68 270.927 1206.34 270.927C1216.2 270.927 1224.14 266.638 1229.18 259.989L1218.56 251.839C1215.99 255.592 1211.7 258.059 1206.34 258.059ZM1239.34 268.782H1252.96V233.502C1255 230.071 1258.64 225.46 1265.51 225.46C1272.26 225.46 1276.23 229.964 1276.23 237.148V268.782H1289.96V236.612C1289.96 220.634 1280.63 212.592 1268.94 212.592C1261.75 212.592 1256.71 215.38 1252.96 219.026V188.357H1239.34V268.782ZM1320.65 270.391C1326.98 270.391 1333.41 267.71 1336.84 263.528V268.782H1350.46V233.824C1350.46 221.921 1342.42 212.592 1326.76 212.592C1316.9 212.592 1308.96 216.667 1304.13 223.315L1314.11 230.929C1317 226.961 1321.08 224.495 1326.33 224.495C1332.55 224.495 1336.84 228.141 1336.84 233.824V235.218L1320.33 238.006C1308.75 239.936 1302.42 246.049 1302.42 254.198C1302.42 264.171 1309.82 270.391 1320.65 270.391ZM1315.93 253.555C1315.93 250.231 1318.29 247.872 1323.97 246.907L1336.84 244.762V252.375C1334.16 256.665 1329.66 259.56 1323.44 259.56C1318.83 259.56 1315.93 257.201 1315.93 253.555ZM1366.05 295.162H1379.67V264.386C1383.86 268.568 1389.11 270.927 1396.51 270.927C1413.67 270.927 1423.96 257.523 1423.96 241.759C1423.96 225.996 1413.67 212.592 1396.51 212.592C1389.11 212.592 1383.86 214.951 1379.67 219.133V214.736H1366.05V295.162ZM1394.58 225.46C1403.8 225.46 1409.81 232.323 1409.81 241.759C1409.81 251.196 1403.8 258.059 1394.58 258.059C1388.36 258.059 1383.32 255.378 1379.67 250.231V233.288C1383.1 228.248 1388.25 225.46 1394.58 225.46Z" fill="black"/>
<path d="M984.116 108.727H853.525C824.119 108.727 800.27 132.576 800.27 161.982V292.573C800.27 321.979 824.119 345.828 853.525 345.828H984.116C1013.52 345.828 1037.37 321.979 1037.37 292.573V161.982C1037.37 132.576 1013.52 108.727 984.116 108.727Z" fill="#000091"/>
<path d="M989.252 265.629L918.823 306.232L848.395 265.629V184.422L918.823 143.819L989.252 184.422V265.629Z" fill="white"/>
<path d="M913.359 199.04H925.49V269.636H913.359V199.04Z" fill="#E1000F"/>
<path d="M891.263 222.466H879.133V192.966H962.615V205.117H891.263V222.466Z" fill="#E1000F"/>
</svg>
